<?xml version="1.0" standalone="no"?>
<!DOCTYPE svg PUBLIC "-//W3C//DTD SVG 20010904//EN"
 "http://www.w3.org/TR/2001/REC-SVG-20010904/DTD/svg10.dtd">
<svg version="1.0" xmlns="http://www.w3.org/2000/svg"
 width="496.000000pt" height="441.000000pt" viewBox="0 0 496.000000 441.000000"
 preserveAspectRatio="xMidYMid meet">

<g transform="translate(0.000000,441.000000) scale(0.100000,-0.100000)"
fill="#000000" stroke="none">
<path d="M2686 4282 c-13 -13 -4 -22 19 -20 14 1 24 7 22 12 -4 11 -33 17 -41
8z"/>
<path d="M2060 4277 c0 -18 39 -77 45 -67 4 6 0 17 -8 23 -8 7 -19 21 -25 32
-6 11 -12 17 -12 12z"/>
<path d="M1907 4163 c-4 -3 -7 -11 -7 -17 0 -6 5 -5 12 2 6 6 9 14 7 17 -3 3
-9 2 -12 -2z"/>
<path d="M2710 4140 c-9 -6 -10 -10 -3 -10 6 0 15 5 18 10 8 12 4 12 -15 0z"/>
<path d="M1490 4045 c0 -8 7 -15 16 -15 12 0 15 -6 11 -21 -4 -15 -3 -19 4
-12 14 14 0 63 -17 63 -8 0 -14 -7 -14 -15z"/>
<path d="M1835 4050 c3 -5 17 -10 31 -10 14 0 22 4 19 10 -3 6 -17 10 -31 10
-14 0 -22 -4 -19 -10z"/>
<path d="M3426 4051 c-3 -5 0 -11 8 -14 8 -3 17 1 20 9 6 15 -19 20 -28 5z"/>
<path d="M1697 4018 c-2 -7 2 -19 9 -26 12 -11 13 -9 11 7 -4 27 -13 35 -20
19z"/>
<path d="M1539 3993 c-1 -5 -1 -11 0 -15 0 -5 -4 -8 -10 -8 -5 0 -8 -4 -4 -9
3 -5 1 -12 -5 -16 -5 -3 -10 2 -11 12 0 14 -3 13 -12 -6 -9 -19 -8 -26 6 -36
9 -6 13 -16 9 -20 -4 -5 -1 -5 6 -1 11 6 10 12 -5 28 -13 15 -14 19 -3 16 8
-2 19 -7 23 -13 5 -6 7 -3 3 7 -3 10 1 24 9 32 8 8 15 19 15 25 0 12 -19 15
-21 4z"/>
<path d="M1665 3990 c3 -5 11 -10 16 -10 6 0 7 5 4 10 -3 6 -11 10 -16 10 -6
0 -7 -4 -4 -10z"/>
<path d="M3470 3989 c0 -12 24 -17 45 -9 16 6 17 9 5 13 -21 7 -50 5 -50 -4z"/>
<path d="M3360 3960 c0 -5 7 -10 15 -10 8 0 15 5 15 10 0 6 -7 10 -15 10 -8 0
-15 -4 -15 -10z"/>
<path d="M3426 3932 c-3 -5 1 -9 9 -9 8 0 12 4 9 9 -3 4 -7 8 -9 8 -2 0 -6 -4
-9 -8z"/>
<path d="M3472 3928 c6 -18 28 -21 28 -4 0 9 -7 16 -16 16 -9 0 -14 -5 -12
-12z"/>
<path d="M3655 3930 c-3 -5 1 -10 9 -10 9 0 16 5 16 10 0 6 -4 10 -9 10 -6 0
-13 -4 -16 -10z"/>
<path d="M3424 3901 c7 -10 31 -9 42 2 4 4 -5 7 -20 7 -15 0 -25 -4 -22 -9z"/>
<path d="M1440 3879 c0 -5 5 -7 10 -4 6 3 10 8 10 11 0 2 -4 4 -10 4 -5 0 -10
-5 -10 -11z"/>
<path d="M3766 3845 c-3 -9 0 -15 9 -15 8 0 15 7 15 15 0 8 -4 15 -9 15 -5 0
-11 -7 -15 -15z"/>
<path d="M1350 3820 c0 -5 7 -10 15 -10 8 0 15 5 15 10 0 6 -7 10 -15 10 -8 0
-15 -4 -15 -10z"/>
<path d="M1145 3790 c4 -6 11 -8 16 -5 14 9 11 15 -7 15 -8 0 -12 -5 -9 -10z"/>
<path d="M1259 3750 c-28 -30 -33 -42 -15 -38 10 1 17 8 18 13 1 6 8 15 16 21
8 6 11 13 6 16 -5 3 -16 -3 -25 -12z"/>
<path d="M3706 3755 c-3 -8 -1 -15 4 -15 6 0 10 7 10 15 0 8 -2 15 -4 15 -2 0
-6 -7 -10 -15z"/>
<path d="M3915 3730 c3 -5 8 -10 11 -10 2 0 4 5 4 10 0 6 -5 10 -11 10 -5 0
-7 -4 -4 -10z"/>
<path d="M1161 3684 c-13 -14 -21 -28 -17 -32 4 -4 12 1 17 11 6 9 17 17 24
17 8 0 15 4 15 9 0 21 -17 18 -39 -5z"/>
<path d="M3730 3694 c0 -9 5 -14 12 -12 18 6 21 28 4 28 -9 0 -16 -7 -16 -16z"/>
<path d="M3940 3694 c0 -8 5 -12 10 -9 6 4 8 11 5 16 -9 14 -15 11 -15 -7z"/>
<path d="M3792 3664 c4 -23 27 -31 24 -8 -2 10 -8 20 -15 22 -8 3 -12 -3 -9
-14z"/>
<path d="M3860 3672 c0 -4 12 -9 28 -10 21 -1 23 0 12 8 -18 12 -40 13 -40 2z"/>
<path d="M1080 3660 c0 -5 5 -10 10 -10 6 0 10 5 10 10 0 6 -4 10 -10 10 -5 0
-10 -4 -10 -10z"/>
<path d="M3890 3641 c0 -5 7 -11 14 -14 10 -4 13 -1 9 9 -6 15 -23 19 -23 5z"/>
<path d="M1085 3590 c3 -5 8 -10 11 -10 2 0 4 5 4 10 0 6 -5 10 -11 10 -5 0
-7 -4 -4 -10z"/>
<path d="M4050 3581 c0 -6 -7 -11 -15 -11 -29 0 -15 -25 16 -26 25 -1 30 2 27
19 -3 21 -28 37 -28 18z"/>
<path d="M3917 3555 c-7 -16 8 -30 17 -16 3 5 22 8 42 6 22 -2 34 0 32 7 -6
18 -85 21 -91 3z"/>
<path d="M857 3526 c-4 -10 -1 -13 8 -9 8 3 12 9 9 14 -7 12 -11 11 -17 -5z"/>
<path d="M945 3530 c-3 -5 -1 -10 4 -10 6 0 11 5 11 10 0 6 -2 10 -4 10 -3 0
-8 -4 -11 -10z"/>
<path d="M991 3514 c-12 -14 -12 -17 0 -25 18 -11 31 -7 38 12 4 12 2 12 -12
0 -19 -15 -23 -1 -5 17 7 7 8 12 3 12 -6 -1 -16 -8 -24 -16z"/>
<path d="M826 3454 c-8 -21 -8 -34 2 -34 4 0 9 11 10 25 2 28 -3 32 -12 9z"/>
<path d="M946 3441 c-4 -5 -2 -12 3 -15 5 -4 12 -2 15 3 4 5 2 12 -3 15 -5 4
-12 2 -15 -3z"/>
<path d="M4060 3409 c0 -5 5 -7 10 -4 6 3 10 8 10 11 0 2 -4 4 -10 4 -5 0 -10
-5 -10 -11z"/>
<path d="M4190 3385 c0 -8 7 -15 15 -15 8 0 15 7 15 15 0 8 -7 15 -15 15 -8 0
-15 -7 -15 -15z"/>
<path d="M4078 3376 c-10 -7 -18 -17 -18 -21 0 -5 8 -1 18 8 10 10 22 14 25
10 4 -3 7 -1 7 5 0 15 -11 15 -32 -2z"/>
<path d="M4100 3344 c-14 -7 -19 -14 -12 -14 7 0 10 -6 7 -12 -4 -7 0 -6 7 2
8 8 20 21 28 28 18 16 2 14 -30 -4z"/>
<path d="M4225 3330 c-3 -5 1 -10 9 -10 9 0 16 5 16 10 0 6 -4 10 -9 10 -6 0
-13 -4 -16 -10z"/>
<path d="M4318 3333 c7 -3 16 -2 19 1 4 3 -2 6 -13 5 -11 0 -14 -3 -6 -6z"/>
<path d="M2035 3301 c-11 -11 -3 -21 16 -21 11 0 18 4 15 9 -4 5 0 11 6 14 7
3 3 4 -10 4 -13 -1 -25 -3 -27 -6z"/>
<path d="M2247 3294 c3 -8 14 -14 24 -14 10 0 19 6 19 14 0 8 -10 14 -24 14
-17 0 -23 -5 -19 -14z"/>
<path d="M682 3269 c2 -6 8 -10 13 -10 5 0 11 4 13 10 2 6 -4 11 -13 11 -9 0
-15 -5 -13 -11z"/>
<path d="M580 3250 c0 -12 4 -19 10 -15 5 3 18 0 28 -6 11 -7 28 -9 38 -5 16
6 16 8 4 16 -8 5 -22 7 -31 4 -9 -2 -24 3 -33 11 -15 15 -16 15 -16 -5z"/>
<path d="M1830 3240 c0 -6 4 -9 9 -6 5 4 12 1 14 -4 3 -6 4 -5 3 2 -3 15 -26
23 -26 8z"/>
<path d="M780 3204 c0 -8 5 -12 10 -9 6 4 8 11 5 16 -9 14 -15 11 -15 -7z"/>
<path d="M725 3160 c-3 -5 -1 -10 4 -10 6 0 11 5 11 10 0 6 -2 10 -4 10 -3 0
-8 -4 -11 -10z"/>
<path d="M3260 3160 c-12 -8 -11 -10 8 -10 12 0 22 5 22 10 0 13 -11 13 -30 0z"/>
<path d="M625 3150 c-3 -5 -1 -10 4 -10 6 0 11 5 11 10 0 6 -2 10 -4 10 -3 0
-8 -4 -11 -10z"/>
<path d="M4382 3131 c-11 -7 -11 -9 0 -14 9 -3 15 1 15 9 0 8 -1 14 -1 14 -1
0 -7 -4 -14 -9z"/>
<path d="M2702 3101 c2 -7 7 -12 11 -12 12 1 9 15 -3 20 -7 2 -11 -2 -8 -8z"/>
<path d="M4226 3095 c4 -8 10 -15 15 -15 5 0 9 7 9 15 0 8 -7 15 -15 15 -9 0
-12 -6 -9 -15z"/>
<path d="M2733 3065 c0 -8 4 -15 9 -15 4 0 8 7 8 15 0 8 -4 15 -8 15 -5 0 -9
-7 -9 -15z"/>
<path d="M590 3046 c0 -2 7 -6 15 -10 8 -3 15 -1 15 4 0 6 -7 10 -15 10 -8 0
-15 -2 -15 -4z"/>
<path d="M482 3014 c16 -17 32 -24 42 -21 25 10 19 25 -11 25 -15 0 -29 5 -31
11 -2 6 -9 11 -15 11 -6 0 0 -12 15 -26z"/>
<path d="M2037 3013 c-17 -16 -4 -23 36 -17 67 11 79 23 21 24 -28 0 -54 -3
-57 -7z"/>
<path d="M2244 3005 c25 -19 32 -19 40 0 4 11 -2 15 -27 15 -30 -1 -31 -1 -13
-15z"/>
<path d="M4420 3009 c0 -6 7 -17 15 -25 13 -14 15 -13 15 10 0 16 -6 26 -15
26 -8 0 -15 -5 -15 -11z"/>
<path d="M1950 2975 c0 -8 7 -15 15 -15 8 0 15 7 15 15 0 8 -7 15 -15 15 -8 0
-15 -7 -15 -15z"/>
<path d="M2352 2981 c4 -13 18 -16 19 -4 0 4 -5 9 -11 12 -7 2 -11 -2 -8 -8z"/>
<path d="M2980 2974 c0 -9 5 -14 12 -12 18 6 21 28 4 28 -9 0 -16 -7 -16 -16z"/>
<path d="M586 2964 c-6 -15 -4 -15 11 -3 10 7 20 15 22 16 2 2 -3 3 -11 3 -9
0 -19 -7 -22 -16z"/>
<path d="M1900 2944 c0 -8 5 -12 10 -9 6 3 10 10 10 16 0 5 -4 9 -10 9 -5 0
-10 -7 -10 -16z"/>
<path d="M2420 2950 c0 -5 5 -10 11 -10 5 0 7 5 4 10 -3 6 -8 10 -11 10 -2 0
-4 -4 -4 -10z"/>
<path d="M3425 2920 c3 -5 10 -10 16 -10 5 0 9 5 9 10 0 6 -7 10 -16 10 -8 0
-12 -4 -9 -10z"/>
<path d="M2501 2894 c0 -11 3 -14 6 -6 3 7 2 16 -1 19 -3 4 -6 -2 -5 -13z"/>
<path d="M4486 2863 c-6 -14 -5 -15 5 -6 7 7 10 15 7 18 -3 3 -9 -2 -12 -12z"/>
<path d="M4346 2835 c-3 -8 -1 -15 4 -15 13 0 22 18 11 24 -5 3 -11 -1 -15 -9z"/>
<path d="M2476 2751 c-4 -7 -5 -15 -2 -18 9 -9 19 4 14 18 -4 11 -6 11 -12 0z"/>
<path d="M3160 2744 c0 -9 5 -14 12 -12 18 6 21 28 4 28 -9 0 -16 -7 -16 -16z"/>
<path d="M2365 2720 c-18 -7 -19 -8 -2 -15 20 -8 47 0 47 15 0 12 -17 12 -45
0z"/>
<path d="M1890 2690 c0 -5 14 -10 30 -10 17 0 30 5 30 10 0 6 -13 10 -30 10
-16 0 -30 -4 -30 -10z"/>
<path d="M2215 2690 c-4 -6 5 -10 19 -10 14 0 26 5 26 10 0 6 -9 10 -19 10
-11 0 -23 -4 -26 -10z"/>
<path d="M1540 2610 c0 -5 7 -10 15 -10 8 0 15 5 15 10 0 6 -7 10 -15 10 -8 0
-15 -4 -15 -10z"/>
<path d="M2870 2416 c0 -176 12 -238 24 -124 3 33 6 114 6 179 0 99 -3 119
-15 119 -13 0 -15 -26 -15 -174z"/>
<path d="M2505 2460 c-19 -8 -19 -9 2 -9 12 -1 25 4 28 9 7 12 -2 12 -30 0z"/>
<path d="M2580 2354 c0 -88 3 -115 13 -112 8 3 13 38 15 116 2 95 0 112 -13
112 -13 0 -15 -18 -15 -116z"/>
<path d="M2396 2435 c-19 -14 -18 -15 11 -15 17 0 36 7 43 15 10 13 9 15 -11
15 -13 0 -33 -7 -43 -15z"/>
<path d="M1860 2407 c0 -8 15 -14 41 -16 37 -2 40 0 26 14 -19 18 -67 20 -67
2z"/>
<path d="M2227 2413 c-26 -25 46 -33 79 -8 18 13 16 14 -27 15 -25 0 -49 -3
-52 -7z"/>
<path d="M2559 1955 c-1 -14 -2 -30 -3 -37 -1 -6 5 -13 12 -15 8 -3 12 8 12
36 0 44 -19 58 -21 16z"/>
<path d="M2847 1953 c-10 -9 -8 -51 2 -57 10 -7 21 17 21 45 0 19 -11 25 -23
12z"/>
<path d="M427 1803 c-4 -3 -7 -11 -7 -17 0 -6 5 -5 12 2 6 6 9 14 7 17 -3 3
-9 2 -12 -2z"/>
<path d="M2537 1753 c-5 -7 -5 -18 -1 -25 4 -7 3 -8 -4 -4 -7 4 -12 3 -12 -3
0 -17 20 -23 26 -7 8 22 1 54 -9 39z"/>
<path d="M510 1720 c0 -5 4 -10 9 -10 6 0 13 5 16 10 3 6 -1 10 -9 10 -9 0
-16 -4 -16 -10z"/>
<path d="M2810 1711 c0 -26 16 -35 24 -15 10 25 7 34 -9 34 -8 0 -15 -9 -15
-19z"/>
<path d="M4384 1722 c4 -7 -3 -14 -19 -18 -25 -6 -32 -18 -17 -28 4 -2 18 6
30 19 16 17 19 26 11 31 -8 4 -9 3 -5 -4z"/>
<path d="M540 1650 c0 -5 7 -10 16 -10 8 0 12 5 9 10 -3 6 -10 10 -16 10 -5 0
-9 -4 -9 -10z"/>
<path d="M4315 1630 c-3 -5 1 -10 9 -10 9 0 16 5 16 10 0 6 -4 10 -9 10 -6 0
-13 -4 -16 -10z"/>
<path d="M2500 1596 c0 -9 5 -16 10 -16 6 0 10 4 10 9 0 6 -4 13 -10 16 -5 3
-10 -1 -10 -9z"/>
<path d="M4285 1590 c-3 -5 1 -10 9 -10 9 0 16 5 16 10 0 6 -4 10 -9 10 -6 0
-13 -4 -16 -10z"/>
<path d="M2780 1566 c0 -9 7 -16 16 -16 17 0 14 22 -4 28 -7 2 -12 -3 -12 -12z"/>
<path d="M4306 1559 c-19 -23 -16 -32 12 -34 12 -1 19 6 20 21 2 32 -11 37
-32 13z"/>
<path d="M4406 1571 c-4 -7 -5 -15 -2 -18 9 -9 19 4 14 18 -4 11 -6 11 -12 0z"/>
<path d="M2750 1455 c0 -8 7 -15 15 -15 8 0 15 7 15 15 0 8 -7 15 -15 15 -8 0
-15 -7 -15 -15z"/>
<path d="M4290 1430 c0 -5 5 -10 11 -10 5 0 7 5 4 10 -3 6 -8 10 -11 10 -2 0
-4 -4 -4 -10z"/>
<path d="M2446 1403 c-11 -11 -6 -23 9 -23 8 0 15 4 15 9 0 13 -16 22 -24 14z"/>
<path d="M4125 1371 c-3 -5 -1 -12 5 -16 5 -3 10 1 10 9 0 18 -6 21 -15 7z"/>
<path d="M540 1360 c0 -5 5 -10 10 -10 6 0 10 5 10 10 0 6 -4 10 -10 10 -5 0
-10 -4 -10 -10z"/>
<path d="M710 1316 c0 -28 14 -35 23 -12 3 8 -1 20 -9 26 -12 10 -14 8 -14
-14z"/>
<path d="M4126 1311 c-4 -7 -5 -15 -2 -18 9 -9 19 4 14 18 -4 11 -6 11 -12 0z"/>
<path d="M2700 1276 c0 -9 7 -16 16 -16 17 0 14 22 -4 28 -7 2 -12 -3 -12 -12z"/>
<path d="M4230 1200 c-13 -8 -12 -10 3 -10 9 0 17 5 17 10 0 12 -1 12 -20 0z"/>
<path d="M4151 1174 c0 -11 3 -14 6 -6 3 7 2 16 -1 19 -3 4 -6 -2 -5 -13z"/>
<path d="M2326 1171 c-4 -7 -5 -15 -2 -18 9 -9 19 4 14 18 -4 11 -6 11 -12 0z"/>
<path d="M2590 1051 c0 -6 4 -13 10 -16 6 -3 7 1 4 9 -7 18 -14 21 -14 7z"/>
<path d="M2560 1020 c-9 -6 -10 -10 -3 -10 6 0 15 5 18 10 8 12 4 12 -15 0z"/>
<path d="M2500 990 c0 -5 5 -10 10 -10 6 0 10 5 10 10 0 6 -4 10 -10 10 -5 0
-10 -4 -10 -10z"/>
<path d="M4035 960 c3 -5 8 -10 11 -10 2 0 4 5 4 10 0 6 -5 10 -11 10 -5 0 -7
-4 -4 -10z"/>
<path d="M3930 906 c0 -2 7 -7 16 -10 8 -3 12 -2 9 4 -6 10 -25 14 -25 6z"/>
<path d="M851 876 c0 -6 4 -20 9 -31 6 -14 9 -15 10 -5 1 8 3 22 5 31 1 9 -4
16 -11 16 -8 0 -14 -5 -13 -11z"/>
<path d="M4003 875 c0 -8 4 -15 9 -15 4 0 8 7 8 15 0 8 -4 15 -8 15 -5 0 -9
-7 -9 -15z"/>
<path d="M3905 859 c-4 -6 -5 -12 -2 -15 2 -3 7 2 10 11 7 17 1 20 -8 4z"/>
<path d="M944 840 c3 -14 6 -28 6 -32 0 -5 5 -8 10 -8 15 0 12 22 -7 45 -15
20 -15 19 -9 -5z"/>
<path d="M3836 843 c-6 -14 -5 -15 5 -6 7 7 10 15 7 18 -3 3 -9 -2 -12 -12z"/>
<path d="M3936 853 c-3 -3 -6 -15 -6 -25 0 -16 5 -20 27 -17 4 0 10 -7 13 -17
4 -11 9 -14 13 -7 4 6 0 18 -8 26 -8 9 -15 20 -15 26 0 13 -15 22 -24 14z"/>
<path d="M3800 620 c0 -5 5 -10 10 -10 6 0 10 5 10 10 0 6 -4 10 -10 10 -5 0
-10 -4 -10 -10z"/>
<path d="M3511 554 c0 -11 3 -14 6 -6 3 7 2 16 -1 19 -3 4 -6 -2 -5 -13z"/>
<path d="M1235 510 c-7 -11 10 -19 39 -17 18 0 18 1 0 14 -21 16 -31 16 -39 3z"/>
<path d="M1406 504 c-4 -10 -1 -14 6 -12 15 5 23 28 10 28 -5 0 -13 -7 -16
-16z"/>
<path d="M3436 505 c3 -8 12 -11 20 -8 20 7 17 18 -5 20 -13 1 -18 -3 -15 -12z"/>
<path d="M1636 451 c-4 -7 -5 -15 -2 -18 9 -9 19 4 14 18 -4 11 -6 11 -12 0z"/>
<path d="M1720 440 c0 -5 5 -10 10 -10 6 0 10 5 10 10 0 6 -4 10 -10 10 -5 0
-10 -4 -10 -10z"/>
<path d="M3450 424 c0 -12 -7 -24 -15 -28 -20 -7 -19 -26 1 -26 8 0 13 4 9 9
-3 5 0 13 6 17 6 3 15 0 20 -7 4 -7 10 -11 12 -9 2 3 -4 19 -14 35 -17 26 -19
27 -19 9z"/>
<path d="M3025 350 c-3 -5 1 -10 10 -10 9 0 13 5 10 10 -3 6 -8 10 -10 10 -2
0 -7 -4 -10 -10z"/>
<path d="M2520 275 c0 -9 5 -15 11 -13 6 2 11 8 11 13 0 5 -5 11 -11 13 -6 2
-11 -4 -11 -13z"/>
<path d="M2420 270 c0 -5 5 -10 10 -10 6 0 10 5 10 10 0 6 -4 10 -10 10 -5 0
-10 -4 -10 -10z"/>
<path d="M2304 251 c4 -5 1 -12 -4 -14 -6 -3 -5 -4 2 -3 15 3 23 26 8 26 -6 0
-9 -4 -6 -9z"/>
<path d="M2355 240 c-3 -5 1 -10 9 -10 9 0 16 5 16 10 0 6 -4 10 -9 10 -6 0
-13 -4 -16 -10z"/>
<path d="M2065 160 c-3 -5 -1 -10 4 -10 6 0 11 5 11 10 0 6 -2 10 -4 10 -3 0
-8 -4 -11 -10z"/>
</g>
</svg>
